G04 #@! TF.FileFunction,Soldermask,Bot*
%FSLAX46Y46*%
G04 Gerber Fmt 4.6, Leading zero omitted, Abs format (unit mm)*
G04 Created by KiCad (PCBNEW 4.0.2-stable) date 5/26/2016 8:00:27 AM*
%MOMM*%
G01*
G04 APERTURE LIST*
%ADD10C,0.100000*%
%ADD11C,2.398980*%
%ADD12R,2.599640X1.901140*%
%ADD13O,2.599640X1.901140*%
%ADD14C,1.600760*%
%ADD15C,1.100000*%
%ADD16C,2.100000*%
%ADD17R,2.100000X2.100000*%
%ADD18R,1.924000X1.924000*%
%ADD19C,1.924000*%
%ADD20C,3.600000*%
%ADD21C,4.900000*%
%ADD22C,4.400000*%
%ADD23R,1.700000X1.700000*%
%ADD24C,1.700000*%
%ADD25O,1.700000X1.700000*%
%ADD26O,1.800000X1.800000*%
%ADD27C,1.800000*%
%ADD28C,1.600000*%
%ADD29C,2.600000*%
%ADD30C,4.000000*%
%ADD31C,2.900000*%
%ADD32O,2.127200X2.127200*%
%ADD33C,2.127200*%
%ADD34O,2.127200X2.432000*%
%ADD35O,2.432000X2.127200*%
%ADD36C,2.000000*%
%ADD37C,3.900000*%
%ADD38O,2.432000X2.432000*%
%ADD39C,2.899360*%
%ADD40C,3.897580*%
%ADD41C,2.650440*%
%ADD42R,1.901140X2.599640*%
%ADD43O,1.901140X2.599640*%
%ADD44R,2.700000X2.000000*%
%ADD45O,2.700000X2.000000*%
%ADD46C,2.500000*%
%ADD47C,3.200000*%
%ADD48C,2.300000*%
G04 APERTURE END LIST*
D10*
D11*
X80010000Y-132080000D03*
X80010000Y-121920000D03*
X137160000Y-132080000D03*
X137160000Y-121920000D03*
X48260000Y-92710000D03*
X48260000Y-87630000D03*
D12*
X186055000Y-133985000D03*
D13*
X186055000Y-131445000D03*
X186055000Y-128905000D03*
X186055000Y-126365000D03*
X186055000Y-123825000D03*
X186055000Y-121285000D03*
X186055000Y-118745000D03*
X186055000Y-116205000D03*
X186055000Y-113665000D03*
X186055000Y-111125000D03*
X186055000Y-108585000D03*
X186055000Y-106045000D03*
X186055000Y-103505000D03*
X186055000Y-100965000D03*
X186055000Y-98425000D03*
X186055000Y-95885000D03*
X186055000Y-93345000D03*
X186055000Y-90805000D03*
X186055000Y-88265000D03*
X186055000Y-85725000D03*
X170815000Y-85725000D03*
X170815000Y-88265000D03*
X170815000Y-90805000D03*
X170815000Y-93345000D03*
X170815000Y-95885000D03*
X170815000Y-98425000D03*
X170815000Y-100965000D03*
X170815000Y-103505000D03*
X170815000Y-106045000D03*
X170815000Y-108585000D03*
X170815000Y-111125000D03*
X170815000Y-113665000D03*
X170815000Y-116205000D03*
X170815000Y-118745000D03*
X170815000Y-121285000D03*
X170815000Y-123825000D03*
X170815000Y-126365000D03*
X170815000Y-128905000D03*
X170815000Y-131445000D03*
X170815000Y-133985000D03*
D14*
X226695000Y-36830000D03*
X225425000Y-35560000D03*
X227965000Y-35560000D03*
X207772000Y-136017000D03*
X209042000Y-137287000D03*
X206502000Y-137287000D03*
D15*
X64725000Y-117560000D03*
X64725000Y-118660000D03*
D16*
X226775000Y-22860000D03*
D17*
X231775000Y-22860000D03*
D18*
X175175400Y-146675000D03*
D19*
X175175400Y-139055000D03*
X167555400Y-146675000D03*
X167555400Y-139055000D03*
D12*
X67310000Y-57785000D03*
D13*
X67310000Y-60325000D03*
X67310000Y-62865000D03*
X67310000Y-65405000D03*
X67310000Y-67945000D03*
X67310000Y-70485000D03*
X67310000Y-73025000D03*
X67310000Y-75565000D03*
X67310000Y-78105000D03*
X67310000Y-80645000D03*
X67310000Y-83185000D03*
X67310000Y-85725000D03*
X67310000Y-88265000D03*
X67310000Y-90805000D03*
X82550000Y-90805000D03*
X82550000Y-88265000D03*
X82550000Y-85725000D03*
X82550000Y-83185000D03*
X82550000Y-80645000D03*
X82550000Y-78105000D03*
X82550000Y-75565000D03*
X82550000Y-73025000D03*
X82550000Y-70485000D03*
X82550000Y-67945000D03*
X82550000Y-65405000D03*
X82550000Y-62865000D03*
X82550000Y-60325000D03*
X82550000Y-57785000D03*
D12*
X90170000Y-57785000D03*
D13*
X90170000Y-60325000D03*
X90170000Y-62865000D03*
X90170000Y-65405000D03*
X90170000Y-67945000D03*
X90170000Y-70485000D03*
X90170000Y-73025000D03*
X90170000Y-75565000D03*
X90170000Y-78105000D03*
X90170000Y-80645000D03*
X90170000Y-83185000D03*
X90170000Y-85725000D03*
X90170000Y-88265000D03*
X90170000Y-90805000D03*
X105410000Y-90805000D03*
X105410000Y-88265000D03*
X105410000Y-85725000D03*
X105410000Y-83185000D03*
X105410000Y-80645000D03*
X105410000Y-78105000D03*
X105410000Y-75565000D03*
X105410000Y-73025000D03*
X105410000Y-70485000D03*
X105410000Y-67945000D03*
X105410000Y-65405000D03*
X105410000Y-62865000D03*
X105410000Y-60325000D03*
X105410000Y-57785000D03*
D20*
X243840000Y-145415000D03*
D21*
X165100000Y-29591000D03*
D22*
X165100000Y-23591000D03*
X160400000Y-26591000D03*
D20*
X22225000Y-145415000D03*
X22225000Y-19685000D03*
D23*
X187960000Y-58420000D03*
D24*
X187960000Y-63420000D03*
D25*
X153670000Y-33020000D03*
D24*
X153670000Y-35520000D03*
D26*
X200660000Y-37465000D03*
D27*
X200660000Y-42465000D03*
D23*
X200660000Y-33655000D03*
D24*
X200660000Y-31655000D03*
D16*
X172085000Y-35640000D03*
D17*
X172085000Y-40640000D03*
D25*
X178435000Y-48260000D03*
D24*
X180935000Y-48260000D03*
D23*
X138430000Y-33655000D03*
D24*
X138430000Y-31655000D03*
D25*
X135890000Y-45720000D03*
D24*
X138390000Y-45720000D03*
D26*
X137160000Y-37465000D03*
D27*
X137160000Y-42465000D03*
D25*
X141630400Y-88214200D03*
D24*
X141630400Y-85714200D03*
D25*
X163576000Y-133858000D03*
D24*
X163576000Y-136358000D03*
D25*
X193040000Y-116205000D03*
D24*
X193040000Y-118705000D03*
D25*
X208915000Y-142240000D03*
D24*
X206415000Y-142240000D03*
D25*
X163830000Y-146685000D03*
D24*
X163830000Y-144185000D03*
D25*
X210820000Y-88900000D03*
D24*
X213320000Y-88900000D03*
D25*
X238760000Y-90805000D03*
D24*
X238760000Y-93305000D03*
D25*
X137185400Y-137185400D03*
D24*
X137185400Y-139685400D03*
D25*
X86233000Y-88265000D03*
D24*
X86233000Y-90765000D03*
D25*
X80010000Y-137160000D03*
D24*
X80010000Y-139660000D03*
D25*
X74295000Y-31750000D03*
D24*
X76795000Y-31750000D03*
D25*
X108966000Y-88392000D03*
D24*
X108966000Y-90892000D03*
D25*
X112395000Y-100330000D03*
D24*
X112395000Y-97830000D03*
X207899000Y-47625000D03*
X207899000Y-65625000D03*
X214376000Y-47625000D03*
X214376000Y-65625000D03*
D25*
X237490000Y-55245000D03*
D24*
X239990000Y-55245000D03*
D25*
X237490000Y-48260000D03*
D24*
X239990000Y-48260000D03*
D25*
X240030000Y-39370000D03*
D24*
X237530000Y-39370000D03*
D25*
X240030000Y-29210000D03*
D24*
X237530000Y-29210000D03*
D23*
X244475000Y-39370000D03*
D24*
X244475000Y-37370000D03*
D23*
X244475000Y-29845000D03*
D24*
X244475000Y-27845000D03*
D25*
X63500000Y-95250000D03*
D24*
X61000000Y-95250000D03*
D25*
X127000000Y-98425000D03*
D24*
X127000000Y-100925000D03*
D25*
X43180000Y-49530000D03*
D24*
X40680000Y-49530000D03*
D25*
X23876000Y-91567000D03*
D24*
X23876000Y-94067000D03*
D25*
X46355000Y-80645000D03*
D24*
X46355000Y-83145000D03*
D26*
X25400000Y-59690000D03*
D27*
X25400000Y-54690000D03*
D24*
X53655000Y-43520000D03*
X31255000Y-43520000D03*
D16*
X221615000Y-41910000D03*
X231775000Y-41910000D03*
X244475000Y-43815000D03*
X234315000Y-43815000D03*
X244475000Y-33655000D03*
X234315000Y-33655000D03*
D28*
X154960000Y-18435000D03*
X144960000Y-18435000D03*
X144960000Y-20935000D03*
X154960000Y-20935000D03*
D29*
X149960000Y-20935000D03*
X144960000Y-25935000D03*
X154960000Y-25935000D03*
X147460000Y-25935000D03*
X152460000Y-25935000D03*
D28*
X149960000Y-25935000D03*
D30*
X134620000Y-18360000D03*
D31*
X134620000Y-22860000D03*
D30*
X129620000Y-22860000D03*
X139620000Y-22860000D03*
X119380000Y-18360000D03*
D31*
X119380000Y-22860000D03*
D30*
X114380000Y-22860000D03*
X124380000Y-22860000D03*
D32*
X157962600Y-142189200D03*
X155422600Y-142189200D03*
X152882600Y-142189200D03*
X150342600Y-142189200D03*
X147802600Y-142189200D03*
D33*
X147802600Y-147269200D03*
D32*
X147802600Y-144729200D03*
X150342600Y-147269200D03*
X150342600Y-144729200D03*
X152882600Y-147269200D03*
X152882600Y-144729200D03*
X155422600Y-147269200D03*
X155422600Y-144729200D03*
X157962600Y-147269200D03*
X157962600Y-144729200D03*
D34*
X82550000Y-52705000D03*
X80010000Y-52705000D03*
X77470000Y-52705000D03*
D35*
X140970000Y-133350000D03*
X140970000Y-130810000D03*
X140970000Y-128270000D03*
D34*
X105410000Y-52705000D03*
X102870000Y-52705000D03*
X100330000Y-52705000D03*
D35*
X22860000Y-133350000D03*
X22860000Y-130810000D03*
X22860000Y-128270000D03*
X58420000Y-113030000D03*
X58420000Y-110490000D03*
X58420000Y-107950000D03*
D36*
X71295000Y-26455000D03*
X64495000Y-26455000D03*
X71295000Y-23955000D03*
X64495000Y-23955000D03*
X66595000Y-23955000D03*
X69195000Y-23955000D03*
D37*
X67895000Y-20155000D03*
X61145000Y-20955000D03*
X74645000Y-20955000D03*
D35*
X189865000Y-85725000D03*
X189865000Y-88265000D03*
X189865000Y-90805000D03*
X189865000Y-93345000D03*
X189865000Y-95885000D03*
X189865000Y-98425000D03*
X189865000Y-100965000D03*
X189865000Y-103505000D03*
X189865000Y-106045000D03*
X189865000Y-108585000D03*
X189865000Y-111125000D03*
X189865000Y-113665000D03*
X189865000Y-116205000D03*
X189865000Y-118745000D03*
X189865000Y-121285000D03*
X189865000Y-123825000D03*
X189865000Y-126365000D03*
X189865000Y-128905000D03*
X189865000Y-131445000D03*
X189865000Y-133985000D03*
X167005000Y-133985000D03*
X167005000Y-131445000D03*
X167005000Y-128905000D03*
X167005000Y-126365000D03*
X167005000Y-123825000D03*
X167005000Y-121285000D03*
X167005000Y-118745000D03*
X167005000Y-116205000D03*
X167005000Y-113665000D03*
X167005000Y-111125000D03*
X167005000Y-108585000D03*
X167005000Y-106045000D03*
X167005000Y-103505000D03*
X167005000Y-100965000D03*
X167005000Y-98425000D03*
X167005000Y-95885000D03*
X167005000Y-93345000D03*
X167005000Y-90805000D03*
X167005000Y-88265000D03*
X167005000Y-85725000D03*
D34*
X73660000Y-52705000D03*
X71120000Y-52705000D03*
X68580000Y-52705000D03*
X66040000Y-52705000D03*
X63500000Y-52705000D03*
D33*
X84455000Y-144145000D03*
D32*
X84455000Y-146685000D03*
X86995000Y-144145000D03*
X86995000Y-146685000D03*
X89535000Y-144145000D03*
X89535000Y-146685000D03*
X92075000Y-144145000D03*
X92075000Y-146685000D03*
X94615000Y-144145000D03*
X94615000Y-146685000D03*
X97155000Y-144145000D03*
X97155000Y-146685000D03*
X99695000Y-144145000D03*
X99695000Y-146685000D03*
X102235000Y-144145000D03*
X102235000Y-146685000D03*
X104775000Y-144145000D03*
X104775000Y-146685000D03*
D34*
X96520000Y-52705000D03*
X93980000Y-52705000D03*
X91440000Y-52705000D03*
X88900000Y-52705000D03*
X86360000Y-52705000D03*
D33*
X112395000Y-144145000D03*
D32*
X112395000Y-146685000D03*
X114935000Y-144145000D03*
X114935000Y-146685000D03*
X117475000Y-144145000D03*
X117475000Y-146685000D03*
X120015000Y-144145000D03*
X120015000Y-146685000D03*
X122555000Y-144145000D03*
X122555000Y-146685000D03*
X125095000Y-144145000D03*
X125095000Y-146685000D03*
X127635000Y-144145000D03*
X127635000Y-146685000D03*
X130175000Y-144145000D03*
X130175000Y-146685000D03*
X132715000Y-144145000D03*
X132715000Y-146685000D03*
D33*
X55245000Y-144145000D03*
D32*
X55245000Y-146685000D03*
X57785000Y-144145000D03*
X57785000Y-146685000D03*
X60325000Y-144145000D03*
X60325000Y-146685000D03*
X62865000Y-144145000D03*
X62865000Y-146685000D03*
X65405000Y-144145000D03*
X65405000Y-146685000D03*
X67945000Y-144145000D03*
X67945000Y-146685000D03*
X70485000Y-144145000D03*
X70485000Y-146685000D03*
X73025000Y-144145000D03*
X73025000Y-146685000D03*
X75565000Y-144145000D03*
X75565000Y-146685000D03*
D33*
X27305000Y-144145000D03*
D32*
X27305000Y-146685000D03*
X29845000Y-144145000D03*
X29845000Y-146685000D03*
X32385000Y-144145000D03*
X32385000Y-146685000D03*
X34925000Y-144145000D03*
X34925000Y-146685000D03*
X37465000Y-144145000D03*
X37465000Y-146685000D03*
X40005000Y-144145000D03*
X40005000Y-146685000D03*
X42545000Y-144145000D03*
X42545000Y-146685000D03*
X45085000Y-144145000D03*
X45085000Y-146685000D03*
X47625000Y-144145000D03*
X47625000Y-146685000D03*
D35*
X58420000Y-99695000D03*
X58420000Y-102235000D03*
X58420000Y-104775000D03*
D38*
X219710000Y-25400000D03*
X219710000Y-22860000D03*
D35*
X20320000Y-114300000D03*
X20320000Y-111760000D03*
X20320000Y-109220000D03*
X20320000Y-106680000D03*
X20320000Y-104140000D03*
X20320000Y-101600000D03*
X20320000Y-99060000D03*
X20320000Y-96520000D03*
X20320000Y-93980000D03*
X20320000Y-91440000D03*
X20320000Y-88900000D03*
X20320000Y-86360000D03*
X20320000Y-71120000D03*
X20320000Y-68580000D03*
X20320000Y-66040000D03*
X20320000Y-63500000D03*
D27*
X227330000Y-137541000D03*
X217170000Y-137541000D03*
X184150000Y-31115000D03*
X184150000Y-41275000D03*
X181610000Y-41275000D03*
X181610000Y-31115000D03*
X221615000Y-44450000D03*
X231775000Y-44450000D03*
X231775000Y-39370000D03*
X221615000Y-39370000D03*
X231775000Y-31115000D03*
X221615000Y-31115000D03*
X119380000Y-43180000D03*
X119380000Y-33020000D03*
X114300000Y-43180000D03*
X114300000Y-33020000D03*
X116840000Y-43180000D03*
X116840000Y-33020000D03*
X24130000Y-62865000D03*
X24130000Y-73025000D03*
X103505000Y-43180000D03*
X103505000Y-33020000D03*
X100965000Y-43180000D03*
X100965000Y-33020000D03*
X64135000Y-33020000D03*
X64135000Y-43180000D03*
X69215000Y-33020000D03*
X69215000Y-43180000D03*
X93345000Y-33020000D03*
X93345000Y-43180000D03*
X90805000Y-33020000D03*
X90805000Y-43180000D03*
X88265000Y-33020000D03*
X88265000Y-43180000D03*
X85725000Y-33020000D03*
X85725000Y-43180000D03*
X95885000Y-33020000D03*
X95885000Y-43180000D03*
X98425000Y-33020000D03*
X98425000Y-43180000D03*
X53340000Y-58420000D03*
X43180000Y-58420000D03*
X61595000Y-33020000D03*
X61595000Y-43180000D03*
X53340000Y-55880000D03*
X43180000Y-55880000D03*
X66675000Y-43180000D03*
X66675000Y-33020000D03*
D39*
X177876200Y-52705000D03*
X177876200Y-57785000D03*
X180416200Y-55245000D03*
D40*
X161620200Y-55245000D03*
D41*
X188366400Y-33909000D03*
X195173600Y-33909000D03*
X190068200Y-31369000D03*
X191770000Y-33909000D03*
X193471800Y-31369000D03*
D39*
X143510000Y-33578800D03*
X148590000Y-33578800D03*
X146050000Y-31038800D03*
D12*
X198120000Y-93345000D03*
D13*
X198120000Y-95885000D03*
X198120000Y-98425000D03*
X198120000Y-100965000D03*
X198120000Y-103505000D03*
X198120000Y-106045000D03*
X198120000Y-108585000D03*
X198120000Y-111125000D03*
X198120000Y-113665000D03*
X198120000Y-116205000D03*
X198120000Y-118745000D03*
X198120000Y-121285000D03*
X198120000Y-123825000D03*
X198120000Y-126365000D03*
X213360000Y-126365000D03*
X213360000Y-123825000D03*
X213360000Y-121285000D03*
X213360000Y-118745000D03*
X213360000Y-116205000D03*
X213360000Y-113665000D03*
X213360000Y-111125000D03*
X213360000Y-108585000D03*
X213360000Y-106045000D03*
X213360000Y-103505000D03*
X213360000Y-100965000D03*
X213360000Y-98425000D03*
X213360000Y-95885000D03*
X213360000Y-93345000D03*
D42*
X84455000Y-138430000D03*
D43*
X86995000Y-138430000D03*
X89535000Y-138430000D03*
X92075000Y-138430000D03*
X94615000Y-138430000D03*
X97155000Y-138430000D03*
X99695000Y-138430000D03*
X102235000Y-138430000D03*
X104775000Y-138430000D03*
X107315000Y-138430000D03*
X109855000Y-138430000D03*
X112395000Y-138430000D03*
X114935000Y-138430000D03*
X117475000Y-138430000D03*
X120015000Y-138430000D03*
X122555000Y-138430000D03*
X125095000Y-138430000D03*
X127635000Y-138430000D03*
X130175000Y-138430000D03*
X132715000Y-138430000D03*
X132715000Y-123190000D03*
X130175000Y-123190000D03*
X127635000Y-123190000D03*
X125095000Y-123190000D03*
X122555000Y-123190000D03*
X120015000Y-123190000D03*
X117475000Y-123190000D03*
X114935000Y-123190000D03*
X112395000Y-123190000D03*
X109855000Y-123190000D03*
X107315000Y-123190000D03*
X104775000Y-123190000D03*
X102235000Y-123190000D03*
X99695000Y-123190000D03*
X97155000Y-123190000D03*
X94615000Y-123190000D03*
X92075000Y-123190000D03*
X89535000Y-123190000D03*
X86995000Y-123190000D03*
X84455000Y-123190000D03*
D42*
X27305000Y-138430000D03*
D43*
X29845000Y-138430000D03*
X32385000Y-138430000D03*
X34925000Y-138430000D03*
X37465000Y-138430000D03*
X40005000Y-138430000D03*
X42545000Y-138430000D03*
X45085000Y-138430000D03*
X47625000Y-138430000D03*
X50165000Y-138430000D03*
X52705000Y-138430000D03*
X55245000Y-138430000D03*
X57785000Y-138430000D03*
X60325000Y-138430000D03*
X62865000Y-138430000D03*
X65405000Y-138430000D03*
X67945000Y-138430000D03*
X70485000Y-138430000D03*
X73025000Y-138430000D03*
X75565000Y-138430000D03*
X75565000Y-123190000D03*
X73025000Y-123190000D03*
X70485000Y-123190000D03*
X67945000Y-123190000D03*
X65405000Y-123190000D03*
X62865000Y-123190000D03*
X60325000Y-123190000D03*
X57785000Y-123190000D03*
X55245000Y-123190000D03*
X52705000Y-123190000D03*
X50165000Y-123190000D03*
X47625000Y-123190000D03*
X45085000Y-123190000D03*
X42545000Y-123190000D03*
X40005000Y-123190000D03*
X37465000Y-123190000D03*
X34925000Y-123190000D03*
X32385000Y-123190000D03*
X29845000Y-123190000D03*
X27305000Y-123190000D03*
D12*
X219075000Y-48260000D03*
D13*
X219075000Y-50800000D03*
X219075000Y-53340000D03*
X219075000Y-55880000D03*
X219075000Y-58420000D03*
X219075000Y-60960000D03*
X219075000Y-63500000D03*
X219075000Y-66040000D03*
X219075000Y-68580000D03*
X219075000Y-71120000D03*
X219075000Y-73660000D03*
X219075000Y-76200000D03*
X219075000Y-78740000D03*
X219075000Y-81280000D03*
X234315000Y-81280000D03*
X234315000Y-78740000D03*
X234315000Y-76200000D03*
X234315000Y-73660000D03*
X234315000Y-71120000D03*
X234315000Y-68580000D03*
X234315000Y-66040000D03*
X234315000Y-63500000D03*
X234315000Y-60960000D03*
X234315000Y-58420000D03*
X234315000Y-55880000D03*
X234315000Y-53340000D03*
X234315000Y-50800000D03*
X234315000Y-48260000D03*
D12*
X101600000Y-97790000D03*
D13*
X101600000Y-100330000D03*
X101600000Y-102870000D03*
X101600000Y-105410000D03*
X101600000Y-107950000D03*
X101600000Y-110490000D03*
X101600000Y-113030000D03*
X101600000Y-115570000D03*
X109220000Y-115570000D03*
X109220000Y-113030000D03*
X109220000Y-110490000D03*
X109220000Y-107950000D03*
X109220000Y-105410000D03*
X109220000Y-102870000D03*
X109220000Y-100330000D03*
X109220000Y-97790000D03*
D42*
X63500000Y-114300000D03*
D43*
X66040000Y-114300000D03*
X68580000Y-114300000D03*
X71120000Y-114300000D03*
X73660000Y-114300000D03*
X76200000Y-114300000D03*
X78740000Y-114300000D03*
X81280000Y-114300000D03*
X83820000Y-114300000D03*
X86360000Y-114300000D03*
X88900000Y-114300000D03*
X91440000Y-114300000D03*
X91440000Y-99060000D03*
X88900000Y-99060000D03*
X86360000Y-99060000D03*
X83820000Y-99060000D03*
X81280000Y-99060000D03*
X78740000Y-99060000D03*
X76200000Y-99060000D03*
X73660000Y-99060000D03*
X71120000Y-99060000D03*
X68580000Y-99060000D03*
X66040000Y-99060000D03*
X63500000Y-99060000D03*
D12*
X116205000Y-99060000D03*
D13*
X116205000Y-101600000D03*
X116205000Y-104140000D03*
X116205000Y-106680000D03*
X116205000Y-109220000D03*
X116205000Y-111760000D03*
X116205000Y-114300000D03*
X123825000Y-114300000D03*
X123825000Y-111760000D03*
X123825000Y-109220000D03*
X123825000Y-106680000D03*
X123825000Y-104140000D03*
X123825000Y-101600000D03*
X123825000Y-99060000D03*
D12*
X27305000Y-66040000D03*
D13*
X27305000Y-68580000D03*
X27305000Y-71120000D03*
X27305000Y-73660000D03*
X27305000Y-76200000D03*
X27305000Y-78740000D03*
X27305000Y-81280000D03*
X27305000Y-83820000D03*
X27305000Y-86360000D03*
X27305000Y-88900000D03*
X27305000Y-91440000D03*
X27305000Y-93980000D03*
X27305000Y-96520000D03*
X27305000Y-99060000D03*
X27305000Y-101600000D03*
X27305000Y-104140000D03*
X27305000Y-106680000D03*
X27305000Y-109220000D03*
X27305000Y-111760000D03*
X27305000Y-114300000D03*
X42545000Y-114300000D03*
X42545000Y-111760000D03*
X42545000Y-109220000D03*
X42545000Y-106680000D03*
X42545000Y-104140000D03*
X42545000Y-101600000D03*
X42545000Y-99060000D03*
X42545000Y-96520000D03*
X42545000Y-93980000D03*
X42545000Y-91440000D03*
X42545000Y-88900000D03*
X42545000Y-86360000D03*
X42545000Y-83820000D03*
X42545000Y-81280000D03*
X42545000Y-78740000D03*
X42545000Y-76200000D03*
X42545000Y-73660000D03*
X42545000Y-71120000D03*
X42545000Y-68580000D03*
X42545000Y-66040000D03*
D42*
X31115000Y-60960000D03*
D43*
X33655000Y-60960000D03*
X36195000Y-60960000D03*
X38735000Y-60960000D03*
X38735000Y-53340000D03*
X36195000Y-53340000D03*
X33655000Y-53340000D03*
X31115000Y-53340000D03*
D20*
X243840000Y-19685000D03*
D44*
X219075000Y-93345000D03*
D45*
X219075000Y-95885000D03*
X219075000Y-98425000D03*
X219075000Y-100965000D03*
X219075000Y-103505000D03*
X219075000Y-106045000D03*
X219075000Y-108585000D03*
X219075000Y-111125000D03*
X219075000Y-113665000D03*
X219075000Y-116205000D03*
X219075000Y-118745000D03*
X219075000Y-121285000D03*
X219075000Y-123825000D03*
X219075000Y-126365000D03*
X234315000Y-126365000D03*
X234315000Y-123825000D03*
X234315000Y-121285000D03*
X234315000Y-118745000D03*
X234315000Y-116205000D03*
X234315000Y-113665000D03*
X234315000Y-111125000D03*
X234315000Y-108585000D03*
X234315000Y-106045000D03*
X234315000Y-103505000D03*
X234315000Y-100965000D03*
X234315000Y-98425000D03*
X234315000Y-95885000D03*
X234315000Y-93345000D03*
D16*
X210225000Y-147905000D03*
X205725000Y-147905000D03*
D46*
X211480000Y-145415000D03*
X204470000Y-145415000D03*
D36*
X221114620Y-144145000D03*
X223654620Y-144145000D03*
D33*
X50165000Y-64135000D03*
D32*
X52705000Y-64135000D03*
X50165000Y-66675000D03*
X52705000Y-66675000D03*
X50165000Y-69215000D03*
X52705000Y-69215000D03*
X50165000Y-71755000D03*
X52705000Y-71755000D03*
X50165000Y-74295000D03*
X52705000Y-74295000D03*
X50165000Y-76835000D03*
X52705000Y-76835000D03*
D16*
X20370000Y-81320000D03*
X20370000Y-76820000D03*
D46*
X22860000Y-82575000D03*
X22860000Y-75565000D03*
D35*
X20320000Y-43180000D03*
X20320000Y-45720000D03*
X20320000Y-48260000D03*
X20320000Y-50800000D03*
X20320000Y-53340000D03*
D26*
X237490000Y-52070000D03*
D27*
X240990000Y-52070000D03*
D26*
X237490000Y-58420000D03*
D27*
X240990000Y-58420000D03*
D26*
X237490000Y-62230000D03*
D27*
X240990000Y-62230000D03*
D26*
X234950000Y-40005000D03*
D27*
X234950000Y-36505000D03*
D19*
X196596000Y-138938000D03*
X199136000Y-138938000D03*
X194056000Y-138938000D03*
X191516000Y-138938000D03*
X188976000Y-138938000D03*
X186436000Y-138938000D03*
X183896000Y-138938000D03*
D25*
X67945000Y-116840000D03*
D24*
X67945000Y-119340000D03*
D25*
X71120000Y-116840000D03*
D24*
X71120000Y-119340000D03*
D47*
X175045000Y-17775000D03*
X188255000Y-17775000D03*
X176950000Y-27305000D03*
X181650000Y-27305000D03*
X186350000Y-27305000D03*
D34*
X151765000Y-66040000D03*
X154305000Y-66040000D03*
X156845000Y-66040000D03*
X159385000Y-66040000D03*
X161925000Y-66040000D03*
X164465000Y-66040000D03*
X167005000Y-66040000D03*
X169545000Y-66040000D03*
X172085000Y-66040000D03*
X174625000Y-66040000D03*
X177165000Y-66040000D03*
X179705000Y-66040000D03*
D48*
X99500000Y-29210000D03*
X97210000Y-29210000D03*
X94920000Y-29210000D03*
X92630000Y-29210000D03*
X90340000Y-29210000D03*
X99500000Y-24130000D03*
X97210000Y-24130000D03*
X94920000Y-24130000D03*
X92630000Y-24130000D03*
X90340000Y-24130000D03*
X98360000Y-26670000D03*
X96070000Y-26670000D03*
X93780000Y-26670000D03*
X91490000Y-26670000D03*
X89200000Y-26670000D03*
D21*
X82160000Y-26670000D03*
X107150000Y-26670000D03*
D34*
X145161000Y-138455400D03*
X147701000Y-138455400D03*
X150241000Y-138455400D03*
X152781000Y-138455400D03*
X155321000Y-138455400D03*
X157861000Y-138455400D03*
X160401000Y-138455400D03*
D12*
X160401000Y-133858000D03*
D13*
X160401000Y-131318000D03*
X160401000Y-128778000D03*
X160401000Y-126238000D03*
X160401000Y-123698000D03*
X160401000Y-121158000D03*
X160401000Y-118618000D03*
X160401000Y-116078000D03*
X160401000Y-105918000D03*
X160401000Y-103378000D03*
X160401000Y-100838000D03*
X160401000Y-98298000D03*
X160401000Y-95758000D03*
X160401000Y-93218000D03*
X160401000Y-90678000D03*
X160401000Y-88138000D03*
X160401000Y-85598000D03*
X145161000Y-85598000D03*
X145161000Y-88138000D03*
X145161000Y-90678000D03*
X145161000Y-93218000D03*
X145161000Y-95758000D03*
X145161000Y-98298000D03*
X145161000Y-100838000D03*
X145161000Y-103378000D03*
X145161000Y-105918000D03*
X145161000Y-116078000D03*
X145161000Y-118618000D03*
X145161000Y-121158000D03*
X145161000Y-123698000D03*
X145161000Y-126238000D03*
X145161000Y-128778000D03*
X145161000Y-131318000D03*
X145161000Y-133858000D03*
D18*
X73770000Y-35544600D03*
D19*
X73770000Y-43164600D03*
X81390000Y-35544600D03*
X81390000Y-43164600D03*
D48*
X120040400Y-57845400D03*
X118790400Y-84745400D03*
X121290400Y-84745400D03*
M02*
