M48
INCH,TZ
T1C0.014
T2C0.016
T3C0.024
T4C0.030
T5C0.030
T6C0.031
T7C0.032
T8C0.035
T9C0.035
T10C0.039
T11C0.039
T12C0.040
T13C0.047
T14C0.047
T15C0.047
T16C0.051
T17C0.059
T18C0.067
T19C0.073
T20C0.087
T21C0.102
T22C0.118
T23C0.125
T24C0.138
T25C0.158
T26C0.047
T27C0.051
T28C0.126
T29C0.138
%
G90
G05
T1
X25482Y-46283
X25482Y-46717
T2
X11200Y-18870
X11270Y-51870
X11400Y-28550
X11520Y-19510
X11850Y-25500
X12400Y-27450
X13700Y-21500
X15150Y-34550
X15660Y-18690
X16200Y-28500
X16250Y-24650
X16250Y-29500
X16250Y-30550
X16350Y-23850
X16380Y-17160
X16500Y-16700
X17480Y-17090
X17500Y-16670
X17650Y-14100
X17950Y-17150
X18160Y-51440
X18600Y-21300
X18800Y-21600
X18970Y-17290
X19500Y-20450
X19700Y-20750
X19900Y-18950
X19950Y-51390
X21360Y-18040
X21760Y-17720
X23550Y-26250
X23630Y-20490
X23800Y-27250
X23900Y-20190
X23980Y-30290
X24010Y-29340
X24150Y-28250
X25620Y-22460
X25685Y-22152
X26800Y-52660
X28114Y-52691
X29540Y-44190
X29860Y-23900
X30500Y-17810
X30610Y-27140
X30890Y-24770
X30970Y-30750
X31600Y-26960
X31680Y-28320
X31881Y-52589
X31940Y-51130
X31940Y-51450
X32270Y-50840
X32310Y-17800
X32446Y-52818
X32530Y-50560
X32572Y-52529
X32720Y-50280
X32840Y-51440
X32880Y-50000
X33020Y-52580
X33270Y-49720
X33420Y-51190
X33540Y-49440
X33710Y-49150
X34060Y-50940
X34680Y-50740
X34980Y-34220
X35041Y-51160
X35400Y-51421
X35730Y-51650
X36012Y-51879
X36120Y-49170
X36370Y-52160
X36390Y-22482
X36630Y-38260
X36670Y-52470
X38000Y-20750
X38390Y-22482
X38610Y-33240
X38730Y-24740
X39300Y-23740
X39757Y-49308
X39810Y-36390
X40680Y-44730
X41400Y-39510
X41780Y-41980
X42390Y-36680
X43430Y-42980
X43600Y-20830
X43700Y-38030
X43820Y-20580
X43980Y-32270
X44020Y-43040
X44360Y-32280
X44930Y-45780
X45260Y-36990
X48210Y-49580
X49200Y-49250
X49570Y-49530
X50090Y-45800
X50380Y-49510
X50600Y-52810
X51570Y-50800
X51830Y-52020
X51940Y-52860
X52027Y-52273
X52400Y-43990
X52400Y-44380
X52400Y-44770
X52400Y-45160
X52400Y-45560
X52400Y-45950
X52400Y-46340
X52400Y-46730
X52410Y-52410
X52500Y-43520
X52660Y-34790
X53070Y-34280
X53373Y-51208
X53430Y-46530
X53437Y-51516
X53440Y-48710
X53450Y-49170
X53470Y-49490
X53479Y-51504
X53480Y-35680
X53480Y-49810
X53490Y-50360
X53490Y-50880
X53497Y-51497
X53500Y-53240
X53710Y-46240
X53770Y-34980
X53990Y-45940
X54260Y-45550
X54430Y-42290
X54540Y-45150
X54750Y-42020
X54820Y-44770
X55100Y-44380
X55420Y-46360
X55610Y-44000
X55740Y-46970
X56330Y-51520
X57990Y-41260
X58640Y-51690
X61360Y-33410
X61500Y-38830
X61690Y-33420
X61720Y-38200
X62010Y-33410
X62100Y-39100
X62330Y-33460
X62370Y-38710
X63700Y-56450
X64703Y-54402
X64720Y-31290
X65040Y-31280
X65180Y-47250
X65180Y-49240
X65190Y-48250
X65220Y-46250
X65302Y-39260
X65302Y-40250
X65302Y-41260
X65700Y-54068
X67900Y-31293
X67980Y-38920
X68135Y-40155
X68140Y-39440
X68300Y-31293
X68460Y-40460
X68580Y-41770
X68600Y-41080
X68700Y-31293
X68780Y-42150
X68990Y-42600
X69100Y-31293
X69500Y-31293
X69562Y-43208
X69900Y-31293
X69960Y-41790
X70070Y-41210
X70090Y-43730
X70120Y-42360
X70300Y-31293
X70320Y-40270
X70330Y-43950
X70490Y-51940
X70560Y-39220
X70610Y-42810
X70700Y-31293
X70700Y-43970
X70790Y-44750
X70830Y-38290
X70921Y-31069
X71170Y-30860
X71180Y-50940
X71360Y-49560
X71400Y-30620
X71640Y-30390
X71870Y-30160
X71990Y-53940
X72700Y-29310
X72713Y-29633
X72888Y-29910
X73850Y-52200
X74350Y-51250
X75350Y-50250
X75450Y-35850
X75450Y-36720
X75500Y-44250
X75650Y-34750
X76499Y-36252
X76600Y-34290
X76700Y-44550
X76844Y-35726
X76880Y-34010
X77080Y-37850
X77110Y-33790
X77250Y-34940
X77350Y-33560
X77540Y-34650
X77790Y-34450
X77880Y-27700
X78020Y-34200
X78200Y-28010
X78530Y-28320
X78840Y-28630
X79240Y-27690
X79500Y-28010
X79820Y-28310
X80120Y-28600
X83070Y-36420
X83550Y-35790
X83550Y-36140
X83950Y-34240
X84860Y-34280
T3
X81300Y-54050
X81800Y-53550
X82300Y-54050
X88750Y-14000
X89250Y-14500
X89750Y-14000
T4
X9500Y-24750
X9500Y-28750
X17000Y-22000
X17000Y-23000
X21000Y-22000
X21000Y-23000
X24250Y-13000
X24250Y-17000
X25250Y-13000
X25250Y-17000
X26250Y-13000
X26250Y-17000
X27250Y-13000
X27250Y-17000
X33750Y-13000
X33750Y-17000
X34750Y-13000
X34750Y-17000
X35750Y-13000
X35750Y-17000
X36750Y-13000
X36750Y-17000
X37750Y-13000
X37750Y-17000
X38750Y-13000
X38750Y-17000
X39750Y-13000
X39750Y-17000
X40750Y-13000
X40750Y-17000
X45000Y-13000
X45000Y-17000
X46000Y-13000
X46000Y-17000
X47000Y-13000
X47000Y-17000
X71500Y-12250
X71500Y-16250
X72500Y-12250
X72500Y-16250
X85500Y-54150
X87250Y-12250
X87250Y-15500
X87250Y-17500
X89500Y-54150
X91250Y-12250
X91250Y-15500
X91250Y-17500
T5
X72400Y-54700
X73400Y-54700
X74400Y-54700
X75400Y-54700
X76400Y-54700
X77400Y-54700
X78400Y-54700
T6
X9400Y-36050
X17000Y-19500
X18250Y-31750
X25000Y-37500
X26750Y-46000
X28000Y-46000
X29043Y-13994
X29043Y-16994
X29250Y-12500
X31500Y-54000
X32043Y-13994
X32043Y-16994
X33950Y-34750
X42900Y-34800
X44250Y-39500
X50000Y-38750
X53500Y-18000
X54010Y-54010
X54500Y-12463
X54500Y-13250
X55760Y-34730
X60500Y-13000
X64400Y-52700
X64500Y-57750
X65967Y-54746
X65967Y-57746
X68967Y-54746
X68967Y-57746
X70250Y-19000
X74000Y-23000
X74000Y-24969
X76000Y-45750
X79000Y-12463
X79000Y-13250
X81850Y-18750
X81850Y-25837
X82250Y-56000
X83000Y-35000
X84400Y-18750
X84400Y-25837
X93500Y-19000
X93500Y-21750
X94000Y-35750
X94500Y-11500
X94500Y-15500
X96250Y-10963
X96250Y-11750
X96250Y-14713
X96250Y-15500
T7
X9400Y-37034
X10750Y-26000
X10750Y-27000
X10750Y-28000
X10750Y-29000
X10750Y-30000
X10750Y-31000
X10750Y-32000
X10750Y-33000
X10750Y-34000
X10750Y-35000
X10750Y-36000
X10750Y-37000
X10750Y-38000
X10750Y-39000
X10750Y-40000
X10750Y-41000
X10750Y-42000
X10750Y-43000
X10750Y-44000
X10750Y-45000
X10750Y-48500
X10750Y-54500
X11750Y-48500
X11750Y-54500
X12250Y-21000
X12250Y-24000
X12750Y-48500
X12750Y-54500
X13250Y-21000
X13250Y-24000
X13750Y-48500
X13750Y-54500
X14250Y-21000
X14250Y-24000
X14750Y-48500
X14750Y-54500
X15250Y-21000
X15250Y-24000
X15750Y-48500
X15750Y-54500
X16016Y-19500
X16750Y-26000
X16750Y-27000
X16750Y-28000
X16750Y-29000
X16750Y-30000
X16750Y-31000
X16750Y-32000
X16750Y-33000
X16750Y-34000
X16750Y-35000
X16750Y-36000
X16750Y-37000
X16750Y-38000
X16750Y-39000
X16750Y-40000
X16750Y-41000
X16750Y-42000
X16750Y-43000
X16750Y-44000
X16750Y-45000
X16750Y-48500
X16750Y-54500
X17750Y-48500
X17750Y-54500
X18250Y-32734
X18750Y-48500
X18750Y-54500
X19000Y-34500
X19000Y-36500
X19750Y-48500
X19750Y-54500
X20750Y-48500
X20750Y-54500
X21750Y-48500
X21750Y-54500
X22750Y-48500
X22750Y-54500
X23750Y-48500
X23750Y-54500
X24016Y-37500
X24750Y-48500
X24750Y-54500
X25000Y-39000
X25000Y-45000
X25750Y-48500
X25750Y-54500
X26000Y-39000
X26000Y-45000
X26500Y-22750
X26500Y-23750
X26500Y-24750
X26500Y-25750
X26500Y-26750
X26500Y-27750
X26500Y-28750
X26500Y-29750
X26500Y-30750
X26500Y-31750
X26500Y-32750
X26500Y-33750
X26500Y-34750
X26500Y-35750
X26750Y-46984
X26750Y-48500
X26750Y-54500
X27000Y-39000
X27000Y-45000
X27750Y-48500
X27750Y-54500
X28000Y-39000
X28000Y-45000
X28000Y-46984
X28750Y-48500
X28750Y-54500
X29000Y-39000
X29000Y-45000
X29750Y-48500
X29750Y-54500
X30000Y-39000
X30000Y-45000
X30234Y-12500
X31000Y-39000
X31000Y-45000
X31500Y-54984
X32000Y-39000
X32000Y-45000
X32500Y-22750
X32500Y-23750
X32500Y-24750
X32500Y-25750
X32500Y-26750
X32500Y-27750
X32500Y-28750
X32500Y-29750
X32500Y-30750
X32500Y-31750
X32500Y-32750
X32500Y-33750
X32500Y-34750
X32500Y-35750
X33000Y-39000
X33000Y-45000
X33250Y-48500
X33250Y-54500
X33950Y-35734
X34000Y-39000
X34000Y-45000
X34250Y-48500
X34250Y-54500
X35000Y-39000
X35000Y-45000
X35250Y-48500
X35250Y-54500
X35500Y-22750
X35500Y-23750
X35500Y-24750
X35500Y-25750
X35500Y-26750
X35500Y-27750
X35500Y-28750
X35500Y-29750
X35500Y-30750
X35500Y-31750
X35500Y-32750
X35500Y-33750
X35500Y-34750
X35500Y-35750
X36000Y-39000
X36000Y-45000
X36250Y-48500
X36250Y-54500
X37250Y-48500
X37250Y-54500
X38250Y-48500
X38250Y-54500
X39250Y-48500
X39250Y-54500
X40000Y-38500
X40000Y-39500
X40000Y-40500
X40000Y-41500
X40000Y-42500
X40000Y-43500
X40000Y-44500
X40000Y-45500
X40250Y-48500
X40250Y-54500
X41250Y-48500
X41250Y-54500
X41500Y-22750
X41500Y-23750
X41500Y-24750
X41500Y-25750
X41500Y-26750
X41500Y-27750
X41500Y-28750
X41500Y-29750
X41500Y-30750
X41500Y-31750
X41500Y-32750
X41500Y-33750
X41500Y-34750
X41500Y-35750
X42250Y-48500
X42250Y-54500
X42900Y-35784
X43000Y-38500
X43000Y-39500
X43000Y-40500
X43000Y-41500
X43000Y-42500
X43000Y-43500
X43000Y-44500
X43000Y-45500
X43250Y-48500
X43250Y-54500
X44250Y-38516
X44250Y-48500
X44250Y-54500
X45250Y-48500
X45250Y-54500
X45750Y-39000
X45750Y-40000
X45750Y-41000
X45750Y-42000
X45750Y-43000
X45750Y-44000
X45750Y-45000
X46250Y-48500
X46250Y-54500
X47250Y-48500
X47250Y-54500
X48250Y-48500
X48250Y-54500
X48750Y-39000
X48750Y-40000
X48750Y-41000
X48750Y-42000
X48750Y-43000
X48750Y-44000
X48750Y-45000
X49250Y-48500
X49250Y-54500
X50000Y-39734
X50250Y-48500
X50250Y-54500
X51250Y-48500
X51250Y-54500
X52250Y-48500
X52250Y-54500
X54010Y-54994
X54484Y-18000
X55760Y-33746
X57150Y-33700
X57150Y-34700
X57150Y-35700
X57150Y-36700
X57150Y-37700
X57150Y-38700
X57150Y-39700
X57150Y-40700
X57150Y-41700
X57150Y-45700
X57150Y-46700
X57150Y-47700
X57150Y-48700
X57150Y-49700
X57150Y-50700
X57150Y-51700
X57150Y-52700
X60500Y-13984
X63150Y-33700
X63150Y-34700
X63150Y-35700
X63150Y-36700
X63150Y-37700
X63150Y-38700
X63150Y-39700
X63150Y-40700
X63150Y-41700
X63150Y-45700
X63150Y-46700
X63150Y-47700
X63150Y-48700
X63150Y-49700
X63150Y-50700
X63150Y-51700
X63150Y-52700
X64400Y-53684
X64500Y-56766
X67250Y-33750
X67250Y-34750
X67250Y-35750
X67250Y-36750
X67250Y-37750
X67250Y-38750
X67250Y-39750
X67250Y-40750
X67250Y-41750
X67250Y-42750
X67250Y-43750
X67250Y-44750
X67250Y-45750
X67250Y-46750
X67250Y-47750
X67250Y-48750
X67250Y-49750
X67250Y-50750
X67250Y-51750
X67250Y-52750
X71234Y-19000
X73250Y-33750
X73250Y-34750
X73250Y-35750
X73250Y-36750
X73250Y-37750
X73250Y-38750
X73250Y-39750
X73250Y-40750
X73250Y-41750
X73250Y-42750
X73250Y-43750
X73250Y-44750
X73250Y-45750
X73250Y-46750
X73250Y-47750
X73250Y-48750
X73250Y-49750
X73250Y-50750
X73250Y-51750
X73250Y-52750
X76000Y-46734
X78000Y-36750
X78000Y-37750
X78000Y-38750
X78000Y-39750
X78000Y-40750
X78000Y-41750
X78000Y-42750
X78000Y-43750
X78000Y-44750
X78000Y-45750
X78000Y-46750
X78000Y-47750
X78000Y-48750
X78000Y-49750
X81266Y-56000
X83984Y-35000
X84000Y-36750
X84000Y-37750
X84000Y-38750
X84000Y-39750
X84000Y-40750
X84000Y-41750
X84000Y-42750
X84000Y-43750
X84000Y-44750
X84000Y-45750
X84000Y-46750
X84000Y-47750
X84000Y-48750
X84000Y-49750
X86250Y-19000
X86250Y-20000
X86250Y-21000
X86250Y-22000
X86250Y-23000
X86250Y-24000
X86250Y-25000
X86250Y-26000
X86250Y-27000
X86250Y-28000
X86250Y-29000
X86250Y-30000
X86250Y-31000
X86250Y-32000
X92250Y-19000
X92250Y-20000
X92250Y-21000
X92250Y-22000
X92250Y-23000
X92250Y-24000
X92250Y-25000
X92250Y-26000
X92250Y-27000
X92250Y-28000
X92250Y-29000
X92250Y-30000
X92250Y-31000
X92250Y-32000
X93516Y-11500
X93516Y-15500
X94000Y-36734
X94484Y-19000
X94484Y-21750
T8
X87053Y-56750
X88053Y-56750
T9
X10000Y-21531
X10000Y-23500
X25392Y-9431
X25392Y-10415
X26219Y-9431
X27242Y-9431
X28069Y-9431
X28069Y-10415
X54000Y-14750
X54000Y-16719
X79000Y-14750
X79000Y-16719
X92500Y-14372
X92500Y-15750
X93500Y-20500
X93500Y-23000
X93500Y-24500
X94878Y-20500
X94878Y-23000
X94878Y-24500
T10
X8020Y-30244
X8020Y-32016
X46768Y-33364
X47260Y-22774
X47752Y-33364
X80994Y-58230
X82766Y-58230
X86250Y-36750
X86250Y-37750
X86250Y-38750
X86250Y-39750
X86250Y-40750
X86250Y-41750
X86250Y-42750
X86250Y-43750
X86250Y-44750
X86250Y-45750
X86250Y-46750
X86250Y-47750
X86250Y-48750
X86250Y-49750
X87250Y-16500
X91250Y-16500
X92250Y-13250
X92250Y-17250
X92250Y-36750
X92250Y-37750
X92250Y-38750
X92250Y-39750
X92250Y-40750
X92250Y-41750
X92250Y-42750
X92250Y-43750
X92250Y-44750
X92250Y-45750
X92250Y-46750
X92250Y-47750
X92250Y-48750
X92250Y-49750
X96250Y-13250
X96250Y-17250
T11
X31500Y-48000
X31500Y-52000
X54000Y-48000
X54000Y-52000
T12
X8000Y-17000
X8000Y-18000
X8000Y-19000
X8000Y-20000
X8000Y-21000
X8000Y-25000
X8000Y-26000
X8000Y-27000
X8000Y-28000
X8000Y-34000
X8000Y-35000
X8000Y-36000
X8000Y-37000
X8000Y-38000
X8000Y-39000
X8000Y-40000
X8000Y-41000
X8000Y-42000
X8000Y-43000
X8000Y-44000
X8000Y-45000
X9000Y-50500
X9000Y-51500
X9000Y-52500
X10750Y-56750
X10750Y-57750
X11750Y-56750
X11750Y-57750
X12750Y-56750
X12750Y-57750
X13750Y-56750
X13750Y-57750
X14750Y-56750
X14750Y-57750
X15750Y-56750
X15750Y-57750
X16750Y-56750
X16750Y-57750
X17750Y-56750
X17750Y-57750
X18750Y-56750
X18750Y-57750
X19750Y-25250
X19750Y-26250
X19750Y-27250
X19750Y-28250
X19750Y-29250
X19750Y-30250
X20750Y-25250
X20750Y-26250
X20750Y-27250
X20750Y-28250
X20750Y-29250
X20750Y-30250
X21750Y-56750
X21750Y-57750
X22750Y-56750
X22750Y-57750
X23000Y-39250
X23000Y-40250
X23000Y-41250
X23000Y-42500
X23000Y-43500
X23000Y-44500
X23750Y-56750
X23750Y-57750
X24750Y-56750
X24750Y-57750
X25000Y-20750
X25750Y-56750
X25750Y-57750
X26000Y-20750
X26750Y-56750
X26750Y-57750
X27000Y-20750
X27750Y-56750
X27750Y-57750
X28000Y-20750
X28750Y-56750
X28750Y-57750
X29000Y-20750
X29750Y-56750
X29750Y-57750
X30500Y-20750
X31500Y-20750
X32500Y-20750
X33250Y-56750
X33250Y-57750
X34000Y-20750
X34250Y-56750
X34250Y-57750
X35000Y-20750
X35250Y-56750
X35250Y-57750
X36000Y-20750
X36250Y-56750
X36250Y-57750
X37000Y-20750
X37250Y-56750
X37250Y-57750
X38000Y-20750
X38250Y-56750
X38250Y-57750
X39250Y-56750
X39250Y-57750
X39500Y-20750
X40250Y-56750
X40250Y-57750
X40500Y-20750
X41250Y-56750
X41250Y-57750
X41500Y-20750
X44250Y-56750
X44250Y-57750
X45250Y-56750
X45250Y-57750
X46250Y-56750
X46250Y-57750
X47250Y-56750
X47250Y-57750
X48250Y-56750
X48250Y-57750
X49250Y-56750
X49250Y-57750
X50250Y-56750
X50250Y-57750
X51250Y-56750
X51250Y-57750
X52250Y-56750
X52250Y-57750
X55500Y-50500
X55500Y-51500
X55500Y-52500
X57150Y-54510
X58150Y-54510
X58190Y-55980
X58190Y-56980
X58190Y-57980
X59150Y-54510
X59190Y-55980
X59190Y-56980
X59190Y-57980
X59750Y-26000
X60150Y-54510
X60190Y-55980
X60190Y-56980
X60190Y-57980
X60750Y-26000
X61150Y-54510
X61190Y-55980
X61190Y-56980
X61190Y-57980
X61750Y-26000
X62150Y-54510
X62190Y-55980
X62190Y-56980
X62190Y-57980
X62750Y-26000
X63150Y-54510
X63750Y-26000
X64750Y-26000
X65750Y-26000
X65750Y-33750
X65750Y-34750
X65750Y-35750
X65750Y-36750
X65750Y-37750
X65750Y-38750
X65750Y-39750
X65750Y-40750
X65750Y-41750
X65750Y-42750
X65750Y-43750
X65750Y-44750
X65750Y-45750
X65750Y-46750
X65750Y-47750
X65750Y-48750
X65750Y-49750
X65750Y-50750
X65750Y-51750
X65750Y-52750
X66750Y-26000
X67750Y-26000
X68750Y-26000
X69750Y-26000
X70750Y-26000
X74750Y-33750
X74750Y-34750
X74750Y-35750
X74750Y-36750
X74750Y-37750
X74750Y-38750
X74750Y-39750
X74750Y-40750
X74750Y-41750
X74750Y-42750
X74750Y-43750
X74750Y-44750
X74750Y-45750
X74750Y-46750
X74750Y-47750
X74750Y-48750
X74750Y-49750
X74750Y-50750
X74750Y-51750
X74750Y-52750
X86500Y-9000
X86500Y-10000
T13
X35118Y-10500
X35567Y-9500
X35567Y-11500
X36020Y-10500
X36469Y-9500
X36469Y-11500
X36921Y-10500
X37370Y-9500
X37370Y-11500
X37823Y-10500
X38272Y-9500
X38272Y-11500
X38724Y-10500
X39173Y-9500
X39173Y-11500
T14
X56500Y-13220
X57500Y-12220
X58500Y-13220
X70030Y-20750
X70030Y-22750
X71030Y-21750
X74160Y-13350
X74830Y-12350
X75500Y-13350
X76170Y-12350
X76840Y-13350
T15
X67750Y-14031
X67750Y-16000
X89281Y-9000
X91250Y-9000
T16
X9000Y-29750
X9000Y-32510
X80500Y-57250
X83260Y-57250
T17
X57071Y-10211
X58055Y-10211
X59039Y-8242
X60024Y-10211
X61008Y-10211
T18
X47000Y-9000
X53000Y-9000
T19
X68915Y-6998
X69665Y-10750
X71516Y-10750
X73366Y-10750
X74116Y-6998
T20
X24073Y-8250
X26730Y-7935
X29388Y-8250
T21
X45031Y-9000
X47000Y-7228
X48969Y-9000
X51031Y-9000
X53000Y-7228
X54969Y-9000
T22
X63150Y-10469
X65000Y-9288
T23
X32346Y-10500
X42185Y-10500
T24
X65000Y-11650
T25
X57500Y-19620
X75500Y-19513
T26
X57071Y-7258
X57071Y-8242
X59039Y-10211
X61008Y-7258
X61008Y-8242
T27
X12305Y-17134
X21124Y-17134
T28
X8750Y-7750
X8750Y-57250
X96000Y-7750
X96000Y-57250
T29
X63630Y-21750
T0
M30
